<svg id="Calque_1" data-name="Calque 1" xmlns="http://www.w3.org/2000/svg" viewBox="0 0 297.44 287.1"><defs><style>.cls-1{fill:#fe6500;}.cls-2{fill:#fb0300;}.cls-3{fill:#fe0000;}.cls-4{fill:#ed0100;}.cls-5{fill:#ee0200;}.cls-6{fill:#e4e000;}.cls-7{fill:#e5da02;}.cls-8{fill:#fe0f07;}.cls-9{fill:#fe6600;}.cls-10{fill:#e7c600;}.cls-11{fill:#e5d600;}.cls-12{fill:#e5d700;}.cls-13{fill:#010000;}.cls-14{fill:#f9d100;}.cls-15{fill:#f1ca00;}.cls-16{fill:#f4ce00;}.cls-17{fill:#eac600;}.cls-18{fill:#e0bd00;}</style></defs><title>icon_daemon</title><path d="M295.11,287q-145.35,0-290.69.08C1,287.11,0,286.6,0,282.83Q.24,193.93.11,105a33.84,33.84,0,0,0,3.65-3.2c10-11.62,17.73-25.22,31.43-33.53C44.67,62.53,54.1,56.72,64,51.71c2.24-1.14,5.12-1.79,6.69.69,1.45,2.29.29,4.6-1.85,6.45-5.71,4.93-9.73,11.34-14.14,17.33-2,2.7-5,5.09-5.47,8.81C45.61,88.15,40.53,90.4,42,96.7A12.58,12.58,0,0,0,41,108.83l0,4.06c-2.69,7.39-3.07,15.27-3.65,22.9A121.41,121.41,0,0,0,41,174.23c3.4,13.78,7.74,26.53,19.5,36a81.47,81.47,0,0,0,30.28,15.6c6.63,1.76,13.52,3.17,20.11,5,8.55,2.32,16.93,4.32,25.77,4.26s17.35-.88,26-1.54a195.2,195.2,0,0,0,26-4c2.67-.57,5.37-.32,8.12-1.45,6.68-2.74,13-6.44,20.06-8.21,15.14-3.76,23-15,29.34-28.08,3.91-8.16,3.86-17.23,6.83-25.6A51.19,51.19,0,0,0,256,142c3.16-3.28,3.8-7.46,4.18-11.73.36-2.56.57-5.11-.93-7.45-.16-1-.31-2-.46-3,.28-5.11.24-10.16-2.93-14.58-1-7.57-.88-15.24-2.4-22.77-.49-2.39-1.6-5.4,1.27-7.25,1.75-1.13,10.44,1.11,11.64,2.41,7,7.64,10.1,17.48,14.82,26.4,1.88,3.55,4,7.06,4.83,10.95,1.59,7.74,4.09,15.21,6.11,22.82,4.39,16.45,4.68,33.43,4.78,50.19C297.08,221,298.78,254.06,295.11,287Z"/><path class="cls-1" d="M256,142c-6.8,5.4-13,11.6-20.7,15.81-4.5-5.17-4.32-5,.66-9.77,2.33-2.24,5.48-3.29,7.49-5.65,2.8-3.28,8.44-4.69,8.2-9.83-.16-3.45-.09-7-.51-10.39-.88-7.33-3.61-13.93-9.35-18.64-4.34-3.56-8.44-7.36-12.56-11.15-2-1.86-3-4.51-.68-6.55,2-1.79,4.69-1.37,6.62.84A68.9,68.9,0,0,0,248.21,98l5.93,8a38.13,38.13,0,0,1,4.61,13.83c.15,1,.3,2,.46,3,.07,2.51-1,5.16.93,7.44C259.76,134.51,259.12,138.69,256,142Z"/><path class="cls-1" d="M48.93,125A47.54,47.54,0,0,1,41,112.89c0-1.35,0-2.71,0-4.06.12-3.6-.19-7.25,1.15-10.72,2.67-4.47,7.1-7,11-10.17,2.17.93,2.22,2.84,1.74,4.6-.69,2.52-1.77,4.92-2.69,7.37a3.18,3.18,0,0,0-3,2.23c-1.64,5.29-1.16,10.29,3,14.25,1.81,1.75,3.46,3.29,2.56,5.89S51.35,125.09,48.93,125Z"/><path class="cls-2" d="M53.2,87.94c-3.91,3.13-8.34,5.7-11,10.17L42,96.7c-1.45-6.3,3.63-8.55,7.25-11.71h1.4Z"/><path class="cls-3" d="M258.75,119.8A38.13,38.13,0,0,0,254.14,106l1-1a1.49,1.49,0,0,1,.67.23C259,109.64,259,114.69,258.75,119.8Z"/><path class="cls-4" d="M42,96.7l.21,1.41c-1.34,3.47-1,7.12-1.15,10.72A12.58,12.58,0,0,1,42,96.7Z"/><path class="cls-5" d="M260.14,130.24c-1.92-2.28-.86-4.93-.93-7.44C260.71,125.13,260.5,127.68,260.14,130.24Z"/><path class="cls-3" d="M48.93,125c2.42.12,4.88,0,5.83-2.69s-.75-4.14-2.56-5.89c-4.11-4-4.59-9-3-14.25a3.18,3.18,0,0,1,3-2.23c1,3.1,2,.32,2.57-.14,6.76-5.24,6.73-5.25,13.48-.3.67.49,1.25,1.6,2.88.53-4.65-7.4-3.26-13.49,5.87-17.59-3.77-.76-6.1-1.83-8.63-1.44-2.36.36-3.22-1.07-3.85-2.9,7.1-2.8,13.25-7.64,20.75-9.56.78-.2,1.6-.29,2.4-.43.51,1-2.65,2.64-.26,2.58,1.62,0,2.51,3.82,3.75.81.5-1.22,4.6-2.11,1-4.34,5.07-3.34,11.19-3.33,16.77-4.58,6.49-1.46,12.72-3.85,19.39-4.82a61.83,61.83,0,0,1,16.26-.49c7.19.89,13.94-1.06,20.86-1.63,12.69-1,24.83-.32,36.12,6.27,7.84,4.57,17.17,6.86,23.78,13.17,7.79,7.43,17.3,13,23.74,21.87l-.95,1a68.9,68.9,0,0,1-13.08-11.32c-1.93-2.21-4.58-2.63-6.62-.84-2.33,2-1.34,4.69.68,6.55,4.12,3.79,8.22,7.59,12.56,11.15,5.74,4.71,8.47,11.31,9.35,18.64.42,3.44.35,6.94.51,10.39.24,5.14-5.4,6.55-8.2,9.83-2,2.36-5.16,3.41-7.49,5.65-5,4.79-5.16,4.6-.66,9.77-7.87,3.11-15.73,6.25-23.63,9.31-6.28,2.43-12.61,4.5-19.53,2.95-3.82-.85-7.47.9-11.28,1.07-18.27.79-36.2-3.11-54.44-3.55a143.07,143.07,0,0,1-36.74-5.47A54.17,54.17,0,0,1,70.8,151.92a155.18,155.18,0,0,1-13.73-12.13C53.07,135.69,51.51,130,48.93,125Zm160.29-27.5c3.67-2.27,4.84-4.88,1.71-8.16-.93-1-.1-1.93.36-2.71.85-1.45.59-2.92-.64-3.5-6-2.81-7.07-10.15-12.86-13.28-2.7-1.45-4.61-2.55-6.93,0-1.54,1.65-3.17,1.34-5,.57-5.8-2.46-12-4.13-17.36-7.48-1.5-.93-2.94-1-4.13.1-5.52,5.06-13,3.8-19.35,6-4,1.36-8.39.23-12.6.1-3.94-.12-6,1.79-4.95,5.37.94,3.21,1.18,5.47-2.9,6.1A2,2,0,0,0,123.38,82c.07,3.76-2.24,7.31-.69,11.25,1.3,3.3.14,5.55-3.7,5.78-1.73.1-3.48.21-3.8,2.37-.29,2-.45,3.93,1.48,5.45a25.9,25.9,0,0,1,3.41,3.6c1.19,1.4.87,2-1,2.7-7.58,3.11-7.78,5.22-1.27,10.24,2.2,1.69,3.05,2.64-.41,4.2-3.27,1.48-3.18,4.9,0,6.47,2.79,1.37,4.37,2.41,2.85,5.94-.73,1.69,1.12,3.58,3.07,3.87,2.63.38,3.27,1.8,4,4.14,1.78,5.39,9.09,9.9,13.94,7.76,5-2.22,6,.66,7.42,3.76,2.74,6,6.24,6.43,10.31,1.24.73-.92,1.25-3.65,3.15-1.86,5.08,4.8,7.63.94,10.08-2.76,1.64-2.47,2.65-3.82,5.56-1.1,2.75,2.58,6.25,1.43,7.2-2.07.73-2.68,1.86-3,3.75-1.45,2.19,1.79,4.66,2.21,7,1,2.47-1.31,1.93-3.84,1.53-6.23-.38-2.22-.28-4.19,2.93-4.58s3.72-2.92,3.32-5.65c-.22-1.46-.82-2.88,0-4.41,2.32.64,4.87,2.4,6.9-.1s.85-5-.36-7.47c-.63-1.29-1.73-2.69.09-3.94,3.13-2.15,1.85-4.62.4-6.95-1.88-3-1.93-5.22,2.2-5.92,1.8-.3,3.15-1,3.3-3.08a4,4,0,0,0-2.46-4.43C212.3,99.1,211,98.37,209.22,97.47ZM91.46,108.06c-2.58,1.22-4.87,3.11-4.67,6.53,0,.32,3.84,1.93,4.23,1.64C94.19,113.92,93.39,110.89,91.46,108.06Zm12.91-5.78c.1-.12-1.66-2.51.33-3.36-1-1.22-2.73-1.66-3.26-3.32-1,1.63-2.73,2.28-4.34,3.08C99.17,100,98.83,104.51,104.37,102.28Zm-3.91-16.2c1.19-.8,1.34-2.41,3-3.08,2.24-.94-.65-3.1.45-4.58A7,7,0,0,1,99.3,77c2.12,1.81-4.29,3.49-.06,5.42C100.7,83.1,99.63,85,100.46,86.08Z"/><path d="M64.1,8c-5.32,0-10.65.11-16-.06-2.39-.07-3,.66-3.08,3.05-.38,11-.47,11,10.55,11h5.5C63.48,22,65,23.48,65,25.56S63.39,29.05,61,29c-4,0-8,.16-12-.07-3-.17-3.56,1.33-2.65,3.55,1.65,4,3.73,7.8,5.4,11.78,1.05,2.52,1.87,5.55-1.74,6.6-2.87.84-4.16-.37-5.22-3.86-1.74-5.73-5.47-10.83-6.25-17a104.55,104.55,0,0,1-.1-22.85C38.72,4.26,41.87.93,46.28,1c8,.1,16-.16,24,.12,3.2.12,6.1-1.1,9.21-1.11C82.2,0,84,1.15,84.05,4S82.39,8.05,79.58,8C74.42,8,69.26,8,64.1,8Z"/><path d="M217.2,45a37.91,37.91,0,0,0-4,0c-2.5.28-4.69-.77-4.92-3-.27-2.74-1.44-6.06,1.61-8.27,2.51-1.82,5.27-.59,5.7,1.52.83,4,3.59,3.05,5.54,2.6a26.63,26.63,0,0,0,10.68-5.11c2.21-1.77,1.53-4.26.92-6.4-.51-1.79-1.38-3.66-4.07-3.39a58.17,58.17,0,0,1-7.47,0c-2.54-.06-4.29-1.51-4-4,.57-4.73.59-9.63,5.24-13,3.18-2.3,6.46-2.24,9.8-1.8a3.21,3.21,0,0,1,2.81,3.52A3.77,3.77,0,0,1,231.8,11c-1.29.22-2.79-.24-3.93.23-1.46.61-3,1.71-2.69,3.7s2.19,1.13,3.24,1c5.1-.41,8.89,2,10.52,6.33,1.87,5,2.71,10.12-2.16,14.82S224.62,45.73,217.2,45Z"/><path d="M103.16,42c-7.44.81-13.21-3.55-19.75-5-4.26-.92-3.66-4.76-3.2-7.72,1.07-6.88,11.3-14.92,18.2-14.16,6.06.67,9.33,5.71,13,9.8,3,3.36,5.53,7.53,3.18,11.86S107.83,42.69,103.16,42ZM87.49,30.64c4.78.81,8.88,4,13.89,4.38,2.33.17,5.08.3,6.42-1.49,1.13-1.51-1.71-2.4-2.38-3.82-.26-.57-.1-1.34-.36-1.9-1.23-2.62-9.45-6.63-11-5.17C91.64,25,88.24,26.75,87.49,30.64Z"/><path d="M183.34,30.47c5.38-.55,7.5-6.06,12.19-7.8,1.21-.45,1-3.38-.43-5.26-1.93-2.55-2.25-5.68-2-8.84a4,4,0,0,1,3-3.48,2.93,2.93,0,0,1,3.49,2.1c-.07,5.18,4,9.11,3.69,14.55-.24,4-2,6.61-4.79,7.91a36.18,36.18,0,0,0-8,5.32,15.94,15.94,0,0,1-5,2.84c-6.45,2.09-9.2-.18-9.5-6.92-.31-7,.87-13.82,1-20.74.06-2.39,1.41-4,3.46-4,2.4,0,3.42,1.87,3.61,4.38C184.69,17.17,182.17,23.63,183.34,30.47Z"/><path d="M141.15,35.94c-3.68.89-7.29-.8-11-1.11-4.58-.39-6.36-4.67-5.12-9.36,2.23-8.36,8.45-14,13.56-20.36,1.63-2,4.06-1.28,6-.8a3.33,3.33,0,0,1,2.53,3.3,3.94,3.94,0,0,1-2.68,3.3c-6.71,2.86-9,9.23-12.17,14.91-.6,1.08-.08,1.86,1.53,2.28,6.26,1.6,12.15,1.12,17.78-2.13a15.26,15.26,0,0,1,3.88-1.88c2.53-.6,4.85.28,5.54,2.84.62,2.33-1.38,3.31-3.33,4.11C152.35,33.21,147.48,36.73,141.15,35.94Z"/><path class="cls-6" d="M64.57,78.07c.63,1.83,1.49,3.26,3.85,2.9,2.53-.39,4.86.68,8.63,1.44C67.92,86.51,66.53,92.6,71.18,100c-1.63,1.07-2.21,0-2.88-.53-6.75-5-6.72-4.94-13.48.3-.59.46-1.59,3.24-2.57.14.92-2.45,2-4.85,2.69-7.37.48-1.76.43-3.67-1.74-4.6L50.63,85C54.69,81.5,60,80.43,64.57,78.07Z"/><path class="cls-7" d="M92.24,67.13c3.57,2.23-.53,3.12-1,4.34-1.24,3-2.13-.85-3.75-.81-2.39.06.77-1.56.26-2.58C89.13,67.31,90.54,66.54,92.24,67.13Z"/><path class="cls-8" d="M248.21,98l.95-1a14.19,14.19,0,0,1,6,8.07l-1,1Z"/><path class="cls-9" d="M209.22,97.47c1.77.9,3.08,1.63,4.43,2.25a4,4,0,0,1,2.46,4.43c-.15,2.1-1.5,2.78-3.3,3.08-4.13.7-4.08,2.88-2.2,5.92,1.45,2.33,2.73,4.8-.4,6.95-1.82,1.25-.72,2.65-.09,3.94,1.21,2.46,2.3,5.07.36,7.47s-4.58.74-6.9.1c-.85,1.53-.25,2.95,0,4.41.4,2.73-.21,5.27-3.32,5.65s-3.31,2.36-2.93,4.58c.4,2.39.94,4.92-1.53,6.23-2.31,1.22-4.78.8-7-1-1.89-1.54-3-1.23-3.75,1.45-1,3.5-4.45,4.65-7.2,2.07-2.91-2.72-3.92-1.37-5.56,1.1-2.45,3.7-5,7.56-10.08,2.76-1.9-1.79-2.42.94-3.15,1.86-4.07,5.19-7.57,4.78-10.31-1.24-1.41-3.1-2.38-6-7.42-3.76-4.85,2.14-12.16-2.37-13.94-7.76-.77-2.34-1.41-3.76-4-4.14-1.95-.29-3.8-2.18-3.07-3.87,1.52-3.53-.06-4.57-2.85-5.94-3.17-1.57-3.26-5,0-6.47,3.46-1.56,2.61-2.51.41-4.2-6.51-5-6.31-7.13,1.27-10.24,1.83-.75,2.15-1.3,1-2.7a25.9,25.9,0,0,0-3.41-3.6c-1.93-1.52-1.77-3.47-1.48-5.45.32-2.16,2.07-2.27,3.8-2.37,3.84-.23,5-2.48,3.7-5.78-1.55-3.94.76-7.49.69-11.25a2,2,0,0,1,1.19-1.46c4.08-.63,3.84-2.89,2.9-6.1-1-3.58,1-5.49,4.95-5.37,4.21.13,8.56,1.26,12.6-.1,6.39-2.16,13.83-.9,19.35-6,1.19-1.09,2.63-1,4.13-.1,5.41,3.35,11.56,5,17.36,7.48,1.83.77,3.46,1.08,5-.57,2.32-2.51,4.23-1.41,6.93,0,5.79,3.13,6.9,10.47,12.86,13.28,1.23.58,1.49,2.05.64,3.5-.46.78-1.29,1.74-.36,2.71C214.06,92.59,212.89,95.2,209.22,97.47ZM201,121.77c-2.14-3.61-1.83-6.32.08-9.92,1.42-2.69,1.69-8.27-.62-10.55-4.26-4.19-3.9-9-3-13.38.83-4.11-1.36-4.87-3.73-5.42-3-.71-5.08-2.53-7.56-4-4.77-2.83-10.37-5.66-15.7-5.8-5.06-.13-11-.92-15.87,3.6a15.12,15.12,0,0,1-9.91,3.27c-5.25-.54-8.56-2.13-10.57,5.24-1.27,4.68-4.67,8.81-3.48,14.18.37,1.67-.1,3.25-1.48,3.9-4.25,2-2.26,4-.4,6.37,2.37,3,3.51,6.37-1.08,8.53-2.67,1.25-2.23,2.45-.44,3.9,3.22,2.59,4,5.59,1.62,9.11-.71,1.05.08,1.89.06,2.81-.13,5.92,6.27,8.36,7.29,13.72.16.81,1.85,1.54,3.45.73,7-3.54,7.13-3.53,12.33,2.48,1.52,1.76,2.3,3.09,4.17.26,1.74-2.63,5.48-2.93,7.09-1.24,3.46,3.64,4.41.53,5.76-1.43,2.06-3,4.19-5.31,8.16-3.11,1,.57,1.69.57,2.18-.83,1.35-3.84,4.23-3.8,7.3-2.4,2.3,1,3.67,1.31,3.56-2s-1-7.28,4.17-8.15c.85-.15.69-1.38.41-2.2C193,124.17,195.35,121.91,201,121.77Z"/><path class="cls-10" d="M91.46,108.06c1.93,2.83,2.73,5.86-.44,8.17-.39.29-4.21-1.32-4.23-1.64C86.59,111.17,88.88,109.28,91.46,108.06Z"/><path class="cls-11" d="M104.37,102.28c-5.54,2.23-5.2-2.24-7.27-3.6,1.61-.8,3.32-1.45,4.34-3.08.53,1.66,2.29,2.1,3.26,3.32C102.71,99.77,104.47,102.16,104.37,102.28Z"/><path class="cls-12" d="M100.46,86.08c-.83-1.13.24-3-1.22-3.65C95,80.5,101.42,78.82,99.3,77a7,7,0,0,0,4.57,1.41c-1.1,1.48,1.79,3.64-.45,4.58C101.8,83.67,101.65,85.28,100.46,86.08Z"/><path class="cls-3" d="M201,121.77c-5.61.14-8,2.4-6.22,7.64.28.82.44,2.05-.41,2.2-5.13.87-4.28,4.79-4.17,8.15s-1.26,3.06-3.56,2c-3.07-1.4-5.95-1.44-7.3,2.4-.49,1.4-1.15,1.4-2.18.83-4-2.2-6.1.12-8.16,3.11-1.35,2-2.3,5.07-5.76,1.43-1.61-1.69-5.35-1.39-7.09,1.24-1.87,2.83-2.65,1.5-4.17-.26-5.2-6-5.31-6-12.33-2.48-1.6.81-3.29.08-3.45-.73-1-5.36-7.42-7.8-7.29-13.72,0-.92-.77-1.76-.06-2.81,2.39-3.52,1.6-6.52-1.62-9.11-1.79-1.45-2.23-2.65.44-3.9,4.59-2.16,3.45-5.48,1.08-8.53-1.86-2.4-3.85-4.36.4-6.37,1.38-.65,1.85-2.23,1.48-3.9-1.19-5.37,2.21-9.5,3.48-14.18,2-7.37,5.32-5.78,10.57-5.24a15.12,15.12,0,0,0,9.91-3.27c4.89-4.52,10.81-3.73,15.87-3.6,5.33.14,10.93,3,15.7,5.8,2.48,1.48,4.55,3.3,7.56,4,2.37.55,4.56,1.31,3.73,5.42-.89,4.39-1.25,9.19,3,13.38,2.31,2.28,2,7.86.62,10.55C199.13,115.45,198.82,118.16,201,121.77Zm-30.64-39.9c-3.81.11-8,3.87-9,8.31a27.37,27.37,0,0,1-3.12,8.76c-4,6.45-2.07,13.46-2,20.28,0,5.11,2.11,10.38-1.39,15.18a2.24,2.24,0,0,0-.34,1.4c.31,5,4.53,10.47,9,10.91,4.92.49,7.42-3.53,9.15-7.06,2.17-4.4,2.78-9.55,4.81-14,2.24-4.94.26-10.67,2.49-15,2.41-4.63-3.37-9.23,1.09-13.18a9,9,0,0,0-1.36-1.86,4,4,0,0,1-1.53-3c.2-5-6-5.93-6.66-10.4C171.38,82,170.54,81.94,170.32,81.87Z"/><path class="cls-13" d="M170.32,81.87c.22.07,1.06.15,1.09.35.68,4.47,6.86,5.41,6.66,10.4a4,4,0,0,0,1.53,3A9,9,0,0,1,181,97.48c-4.46,4,1.32,8.55-1.09,13.18-2.23,4.29-.25,10-2.49,15-2,4.48-2.64,9.63-4.81,14-1.73,3.53-4.23,7.55-9.15,7.06-4.49-.44-8.71-6-9-10.91a2.24,2.24,0,0,1,.34-1.4c3.5-4.8,1.42-10.07,1.39-15.18,0-6.82-2-13.83,2-20.28a27.37,27.37,0,0,0,3.12-8.76C162.29,85.74,166.51,82,170.32,81.87Zm-.1,54.41L173,128c.12-1.46-.21-3.15.42-4.33,3.06-5.75,2.7-12,2.7-18.09,0-2.2-1.64-4.41-1.56-6.57.16-4.12.45-4.11-2.24-6.42,0,2,.12,3.77,0,5.54-.75,9.62,2.7,19.39-1.05,28.9l-2.06,7c-2,2.27-2.75,5.68-6,6.87C161,133.74,161,126.38,161,119c.38-2.11.64-4.25,1.16-6.33,1.79-7.17,2.77-14.61,6.5-21.14.84-1.49,2.49-2.81.51-4.1-2.47-1.6-3.25,1.08-3.8,2.5-1.7,4.38-2.58,9.12-4.61,13.31-2.56,5.32-2,10.45-.71,15.77-.87,5.37,1.7,11-1.26,16.38-.39.73-.73,6.77,4.35,6.61C168.59,144,168.37,138.84,170.22,136.28Z"/><path class="cls-14" d="M160,119c-1.33-5.32-1.85-10.45.71-15.77,2-4.19,2.91-8.93,4.61-13.31.55-1.42,1.33-4.1,3.8-2.5,2,1.29.33,2.61-.51,4.1-3.73,6.53-4.71,14-6.5,21.14-.52,2.08-.78,4.22-1.16,6.33Z"/><path class="cls-15" d="M171.23,127c3.75-9.51.3-19.28,1.05-28.9.14-1.77,0-3.56,0-5.54,2.69,2.31,2.4,2.3,2.24,6.42-.08,2.16,1.56,4.37,1.56,6.57,0,6.12.36,12.34-2.7,18.09-.63,1.18-.3,2.87-.42,4.33Z"/><path class="cls-16" d="M160,119H161c0,7.37.06,14.73,2.19,21.89l0,1.11c-5.08.16-4.74-5.88-4.35-6.61C161.72,130,159.15,124.39,160,119Z"/><path class="cls-17" d="M163.11,142l0-1.11c3.26-1.19,4-4.6,6-6.87.86.51.91,1.4,1.05,2.25C168.37,138.84,168.59,144,163.11,142Z"/><path class="cls-18" d="M170.22,136.28c-.14-.85-.19-1.74-1.05-2.25l2.06-7,1.75,1Z"/></svg>